<mxfile host="65bd71144e">
    <diagram id="AnLCdFuVeWSrlfW8I3jL" name="Page-1">
        <mxGraphModel dx="1106" dy="879" grid="1" gridSize="10" guides="1" tooltips="1" connect="1" arrows="1" fold="1" page="1" pageScale="1" pageWidth="850" pageHeight="1100" math="0" shadow="0">
            <root>
                <mxCell id="0"/>
                <mxCell id="1" parent="0"/>
                <mxCell id="2" value="" style="rounded=0;whiteSpace=wrap;html=1;" parent="1" vertex="1">
                    <mxGeometry x="40" y="80" width="750" height="450" as="geometry"/>
                </mxCell>
                <mxCell id="3" value="rollNumber&lt;div&gt;fullName&lt;/div&gt;&lt;div&gt;email&lt;/div&gt;" style="whiteSpace=wrap;html=1;aspect=fixed;" parent="1" vertex="1">
                    <mxGeometry x="70" y="140" width="80" height="80" as="geometry"/>
                </mxCell>
                <mxCell id="4" value="rollNumber&lt;div&gt;fullName&lt;/div&gt;&lt;div&gt;email&lt;/div&gt;" style="whiteSpace=wrap;html=1;aspect=fixed;" parent="1" vertex="1">
                    <mxGeometry x="180" y="140" width="80" height="80" as="geometry"/>
                </mxCell>
                <mxCell id="5" value="rollNumber&lt;div&gt;fullName&lt;/div&gt;&lt;div&gt;email&lt;/div&gt;" style="whiteSpace=wrap;html=1;aspect=fixed;" parent="1" vertex="1">
                    <mxGeometry x="300" y="140" width="80" height="80" as="geometry"/>
                </mxCell>
            </root>
        </mxGraphModel>
    </diagram>
    <diagram id="OIGYeeO6wSgXKQzBb0YS" name="Strings">
        <mxGraphModel dx="1399" dy="879" grid="1" gridSize="10" guides="1" tooltips="1" connect="1" arrows="1" fold="1" page="1" pageScale="1" pageWidth="850" pageHeight="1100" math="0" shadow="0">
            <root>
                <mxCell id="0"/>
                <mxCell id="1" parent="0"/>
                <mxCell id="W9OU9_rn0b6NXrAOiZUa-1" value="" style="whiteSpace=wrap;html=1;aspect=fixed;" vertex="1" parent="1">
                    <mxGeometry x="345" y="120" width="465" height="465" as="geometry"/>
                </mxCell>
                <mxCell id="W9OU9_rn0b6NXrAOiZUa-2" value="&lt;span style=&quot;color: rgb(63, 63, 63); font-size: 20px;&quot;&gt;String Constant Pool&lt;/span&gt;" style="rounded=1;whiteSpace=wrap;html=1;" vertex="1" parent="1">
                    <mxGeometry x="340" y="50" width="470" height="60" as="geometry"/>
                </mxCell>
                <mxCell id="W9OU9_rn0b6NXrAOiZUa-6" style="edgeStyle=none;html=1;entryX=0.007;entryY=0.376;entryDx=0;entryDy=0;entryPerimeter=0;exitX=1;exitY=0.5;exitDx=0;exitDy=0;" edge="1" parent="1" source="W9OU9_rn0b6NXrAOiZUa-3" target="W9OU9_rn0b6NXrAOiZUa-7">
                    <mxGeometry relative="1" as="geometry"/>
                </mxCell>
                <mxCell id="W9OU9_rn0b6NXrAOiZUa-3" value="&lt;font style=&quot;font-size: 20px;&quot;&gt;str&amp;nbsp;&lt;/font&gt;" style="rounded=0;whiteSpace=wrap;html=1;" vertex="1" parent="1">
                    <mxGeometry x="140" y="160" width="80" height="40" as="geometry"/>
                </mxCell>
                <mxCell id="W9OU9_rn0b6NXrAOiZUa-5" value="&lt;span style=&quot;color: rgb(63, 63, 63); font-size: 20px;&quot;&gt;Welcome&lt;/span&gt;" style="rounded=1;whiteSpace=wrap;html=1;fillColor=#f8cecc;strokeColor=#b85450;" vertex="1" parent="1">
                    <mxGeometry x="360" y="170" width="210" height="60" as="geometry"/>
                </mxCell>
                <mxCell id="W9OU9_rn0b6NXrAOiZUa-7" value="&lt;span style=&quot;color: rgb(63, 63, 63); font-size: 20px;&quot;&gt;hey there!&lt;/span&gt;" style="rounded=1;whiteSpace=wrap;html=1;" vertex="1" parent="1">
                    <mxGeometry x="360" y="270" width="210" height="60" as="geometry"/>
                </mxCell>
                <mxCell id="W9OU9_rn0b6NXrAOiZUa-10" style="edgeStyle=none;html=1;entryX=0;entryY=0.5;entryDx=0;entryDy=0;" edge="1" parent="1" source="W9OU9_rn0b6NXrAOiZUa-9" target="W9OU9_rn0b6NXrAOiZUa-11">
                    <mxGeometry relative="1" as="geometry"/>
                </mxCell>
                <mxCell id="W9OU9_rn0b6NXrAOiZUa-9" value="&lt;font style=&quot;font-size: 20px;&quot;&gt;str2&lt;/font&gt;" style="rounded=0;whiteSpace=wrap;html=1;" vertex="1" parent="1">
                    <mxGeometry x="140" y="350" width="80" height="40" as="geometry"/>
                </mxCell>
                <mxCell id="W9OU9_rn0b6NXrAOiZUa-11" value="&lt;span style=&quot;color: rgb(63, 63, 63); font-size: 20px;&quot;&gt;Hello hey there!&lt;/span&gt;" style="rounded=1;whiteSpace=wrap;html=1;" vertex="1" parent="1">
                    <mxGeometry x="350" y="360" width="210" height="60" as="geometry"/>
                </mxCell>
                <mxCell id="W9OU9_rn0b6NXrAOiZUa-12" value="&lt;font style=&quot;font-size: 22px;&quot;&gt;String str = &quot;hello World&quot;&lt;/font&gt;" style="whiteSpace=wrap;html=1;" vertex="1" parent="1">
                    <mxGeometry x="20" y="20" width="280" height="60" as="geometry"/>
                </mxCell>
            </root>
        </mxGraphModel>
    </diagram>
</mxfile>